<?xml version="1.0" encoding="utf-8"?>
<!-- Generator: Adobe Illustrator 22.1.0, SVG Export Plug-In . SVG Version: 6.00 Build 0)  -->
<svg version="1.1" id="Layer_1" xmlns="http://www.w3.org/2000/svg" xmlns:xlink="http://www.w3.org/1999/xlink" x="0px" y="0px"
	 viewBox="0 0 283.5 46.9" style="enable-background:new 0 0 283.5 46.9;" xml:space="preserve" fill="#ffffff">
<path d="M0,26.4c0-1.7,0.4-3.1,1.2-4.1c0.8-1,1.9-1.5,3.2-1.5c1.2,0,2.1,0.4,2.8,1.2v-5.7h2.5V32H7.4l-0.1-1.1
			c-0.7,0.9-1.7,1.3-3,1.3c-1.3,0-2.3-0.5-3.1-1.6C0.4,29.6,0,28.2,0,26.4z M2.5,26.6c0,1.1,0.2,2,0.6,2.6c0.4,0.6,1,0.9,1.8,0.9
			c1,0,1.8-0.5,2.2-1.4v-4.7C6.8,23.3,6,22.8,5,22.8c-0.8,0-1.4,0.3-1.9,1C2.7,24.4,2.5,25.4,2.5,26.6z"/>
		<path d="M17.2,32.3c-1.6,0-2.9-0.5-3.8-1.5c-1-1-1.5-2.3-1.5-4v-0.3c0-1.1,0.2-2.1,0.6-3c0.4-0.9,1-1.5,1.8-2
			c0.8-0.5,1.6-0.7,2.6-0.7c1.5,0,2.7,0.5,3.5,1.4c0.8,1,1.2,2.3,1.2,4.1v1h-7.2c0.1,0.9,0.4,1.6,0.9,2.2c0.5,0.5,1.2,0.8,2,0.8
			c1.1,0,2.1-0.5,2.8-1.4l1.3,1.3c-0.4,0.7-1,1.2-1.8,1.5C18.9,32.1,18.1,32.3,17.2,32.3z M16.9,22.8c-0.7,0-1.2,0.2-1.7,0.7
			c-0.4,0.5-0.7,1.1-0.8,2h4.7v-0.2c-0.1-0.8-0.3-1.5-0.7-1.9C18.1,23,17.5,22.8,16.9,22.8z"/>
		<path d="M27.4,28.9l2.3-7.9h2.6L28.5,32h-2.2L22.5,21H25L27.4,28.9z"/>
		<path d="M38.7,32.3c-1.6,0-2.9-0.5-3.8-1.5c-1-1-1.5-2.3-1.5-4v-0.3c0-1.1,0.2-2.1,0.6-3c0.4-0.9,1-1.5,1.8-2
			c0.8-0.5,1.6-0.7,2.6-0.7c1.5,0,2.7,0.5,3.5,1.4c0.8,1,1.2,2.3,1.2,4.1v1H36c0.1,0.9,0.4,1.6,0.9,2.2c0.5,0.5,1.2,0.8,2,0.8
			c1.1,0,2.1-0.5,2.8-1.4l1.3,1.3c-0.4,0.7-1,1.2-1.8,1.5C40.5,32.1,39.7,32.3,38.7,32.3z M38.5,22.8c-0.7,0-1.2,0.2-1.7,0.7
			c-0.4,0.5-0.7,1.1-0.8,2h4.7v-0.2c-0.1-0.8-0.3-1.5-0.7-1.9C39.7,23,39.1,22.8,38.5,22.8z"/>
		<path d="M47.8,32h-2.5V16.3h2.5V32z"/>
		<path d="M50,26.4c0-1.1,0.2-2.1,0.6-2.9c0.4-0.9,1-1.5,1.8-2c0.8-0.5,1.7-0.7,2.7-0.7c1.5,0,2.7,0.5,3.6,1.4
			c0.9,1,1.4,2.2,1.5,3.8l0,0.6c0,1.1-0.2,2.1-0.6,2.9c-0.4,0.9-1,1.5-1.8,2c-0.8,0.5-1.7,0.7-2.7,0.7c-1.6,0-2.8-0.5-3.7-1.6
			c-0.9-1-1.4-2.4-1.4-4.2V26.4z M52.5,26.6c0,1.1,0.2,2,0.7,2.7c0.5,0.6,1.1,1,2,1c0.8,0,1.5-0.3,2-1c0.5-0.7,0.7-1.6,0.7-2.9
			c0-1.1-0.2-2-0.7-2.7c-0.5-0.7-1.1-1-2-1c-0.8,0-1.5,0.3-1.9,1C52.7,24.4,52.5,25.3,52.5,26.6z"/>
		<path d="M72.1,26.6c0,1.7-0.4,3.1-1.2,4.1c-0.8,1-1.8,1.5-3.1,1.5c-1.2,0-2.2-0.4-2.9-1.2v5.2h-2.5V21h2.3l0.1,1.1
			c0.7-0.9,1.7-1.3,3-1.3c1.3,0,2.4,0.5,3.2,1.5c0.8,1,1.1,2.4,1.1,4.2V26.6z M69.6,26.4c0-1.1-0.2-2-0.7-2.6c-0.4-0.6-1.1-1-1.9-1
			c-1,0-1.7,0.4-2.2,1.3V29c0.5,0.9,1.2,1.3,2.2,1.3c0.8,0,1.4-0.3,1.9-1S69.6,27.7,69.6,26.4z"/>
		<path d="M79,32.3c-1.6,0-2.9-0.5-3.8-1.5c-1-1-1.5-2.3-1.5-4v-0.3c0-1.1,0.2-2.1,0.6-3c0.4-0.9,1-1.5,1.8-2
			c0.8-0.5,1.6-0.7,2.6-0.7c1.5,0,2.7,0.5,3.5,1.4c0.8,1,1.2,2.3,1.2,4.1v1h-7.2c0.1,0.9,0.4,1.6,0.9,2.2c0.5,0.5,1.2,0.8,2,0.8
			c1.1,0,2.1-0.5,2.8-1.4l1.3,1.3c-0.4,0.7-1,1.2-1.8,1.5C80.8,32.1,80,32.3,79,32.3z M78.7,22.8c-0.7,0-1.2,0.2-1.7,0.7
			c-0.4,0.5-0.7,1.1-0.8,2H81v-0.2c-0.1-0.8-0.3-1.5-0.7-1.9C80,23,79.4,22.8,78.7,22.8z"/>
		<path d="M84.9,26.4c0-1.7,0.4-3.1,1.2-4.1c0.8-1,1.9-1.5,3.2-1.5c1.2,0,2.1,0.4,2.8,1.2v-5.7h2.5V32h-2.2l-0.1-1.1
			c-0.7,0.9-1.7,1.3-3,1.3c-1.3,0-2.3-0.5-3.1-1.6C85.3,29.6,84.9,28.2,84.9,26.4z M87.4,26.6c0,1.1,0.2,2,0.6,2.6
			c0.4,0.6,1,0.9,1.8,0.9c1,0,1.8-0.5,2.2-1.4v-4.7c-0.5-0.9-1.2-1.3-2.2-1.3c-0.8,0-1.4,0.3-1.9,1C87.6,24.4,87.4,25.4,87.4,26.6z"
			/>
		<path d="M112.1,26.6c0,1.7-0.4,3.1-1.2,4.1c-0.8,1-1.8,1.5-3.2,1.5c-1.3,0-2.3-0.5-3-1.4l-0.1,1.2h-2.2V16.3h2.5V22
			c0.7-0.8,1.7-1.3,2.9-1.3c1.3,0,2.4,0.5,3.2,1.5c0.8,1,1.2,2.4,1.2,4.2V26.6z M109.7,26.4c0-1.2-0.2-2.1-0.6-2.7
			c-0.4-0.6-1-0.9-1.8-0.9c-1.1,0-1.8,0.5-2.3,1.4v4.6c0.4,1,1.2,1.4,2.3,1.4c0.8,0,1.4-0.3,1.8-0.9c0.4-0.6,0.6-1.5,0.7-2.6V26.4z"
			/>
		<path d="M118.1,28.5l2.2-7.5h2.6l-4.4,12.7c-0.7,1.9-1.8,2.8-3.4,2.8c-0.4,0-0.8-0.1-1.2-0.2v-1.9l0.5,0
			c0.6,0,1.1-0.1,1.4-0.3c0.3-0.2,0.6-0.6,0.8-1.1l0.4-1l-3.9-11h2.7L118.1,28.5z"/>
	<path d="M171.8,16.5c-1.4,1.4-3.2,2.1-5.1,2.1h-7.2v-6.9v-0.3c0-1.9,0.7-3.7,2.1-5.1c1.4-1.4,3.2-2.1,5.1-2.1
		c1.9,0,3.7,0.7,5.1,2.1c1.4,1.4,2.1,3.2,2.1,5.1C173.9,13.3,173.2,15.1,171.8,16.5 M174.8,3.3c-2.2-2.2-5.1-3.3-8.1-3.3
		c-2.9,0-5.8,1.1-8.1,3.3c-2.3,2.3-3.4,5.3-3.3,8.3h0v10.9c0,0.2,0.1,0.3,0.3,0.3h11.1c2.9,0,5.8-1.1,8.1-3.3
		C179.2,15,179.2,7.8,174.8,3.3"/>
	<path d="M150.8,20L150.8,20c0.2,0,0.3-0.1,0.3-0.3V16c0-0.2-0.1-0.3-0.3-0.3c0,0,0,0,0,0c-6.2,0.2-11.1,5.2-11.1,11.4
		c0,6.3,5.1,11.4,11.4,11.4c6.2,0,11.2-5,11.4-11.1c0-0.1-0.1-0.3-0.3-0.3h-3.7c-0.2,0-0.3,0.1-0.3,0.3l0,0
		c-0.1,3.8-3.3,6.9-7.2,6.9c-4,0-7.2-3.2-7.2-7.2C143.9,23.3,146.9,20.1,150.8,20"/>
	<path d="M171,27.4C171,27.4,171,27.4,171,27.4L171,27.4c0-0.2-0.1-0.3-0.3-0.3H167c-0.1,0-0.3,0.1-0.3,0.3l0,0
		c-0.1,8.5-7.1,15.3-15.6,15.3c-8.6,0-15.6-7-15.6-15.6c0-8.5,6.7-15.4,15.2-15.6c0,0,0,0,0,0c0.2,0,0.3-0.1,0.3-0.3V7.5v0
		c0-0.2-0.1-0.3-0.3-0.3c0,0,0,0,0,0c-10.8,0.2-19.4,9-19.4,19.8c0,10.9,8.9,19.8,19.8,19.8C162,46.9,170.8,38.2,171,27.4
		C171,27.4,171,27.4,171,27.4C171,27.4,171,27.4,171,27.4"/>
	<path d="M191.2,17.8C191.2,17.8,191.2,17.8,191.2,17.8c-4.9,0.3-8.8,4.4-8.8,9.4v8.7c0,0.2,0.1,0.3,0.3,0.3h3.7
		c0.2,0,0.3-0.1,0.3-0.3l0,0v-8.7c0-2.7,2-4.9,4.6-5.1l0,0c0.1,0,0.2-0.1,0.2-0.3v-3.7C191.5,17.9,191.3,17.8,191.2,17.8"/>
	<path d="M201.7,32.4c-2.8,0-5.2-2.3-5.2-5.2s2.3-5.2,5.2-5.2c2.8,0,5.2,2.3,5.2,5.2S204.6,32.4,201.7,32.4 M211.1,26.8
		v-9c0-0.2-0.1-0.3-0.3-0.3h-3.2l0,0c0,0,0,0,0,0c-0.1,0-0.2,0.1-0.3,0.2l0,0l-0.5,1.7l-0.5-0.3c-1.4-0.8-3.1-1.3-4.7-1.3
		c-5.2,0-9.4,4.2-9.4,9.4c0,5.2,4.2,9.4,9.4,9.4c5.2,0,9.4-4.2,9.4-9.4c0,0,0-0.1,0-0.1c0,0,0-0.1,0-0.1L211.1,26.8L211.1,26.8z"/>
	<path d="M222.2,32.4c-2.8,0-5.2-2.3-5.2-5.2s2.3-5.2,5.2-5.2c2.8,0,5.2,2.3,5.2,5.2S225.1,32.4,222.2,32.4 M231.6,26.8
		V6c0-0.2-0.1-0.3-0.3-0.3h-3.7c-0.2,0-0.3,0.1-0.3,0.3c0,0,0,0,0,0v12.9v0.5l-0.5-0.3c-1.4-0.8-3.1-1.3-4.7-1.3
		c-5.2,0-9.4,4.2-9.4,9.4c0,5.2,4.2,9.4,9.4,9.4c5.2,0,9.4-4.2,9.4-9.4c0,0,0-0.1,0-0.1c0,0,0-0.1,0-0.1L231.6,26.8L231.6,26.8z"/>
	<path d="M283.2,17.8C283.2,17.8,283.2,17.8,283.2,17.8c-4.9,0.3-8.8,4.4-8.8,9.4v8.7c0,0.2,0.1,0.3,0.3,0.3h3.7
		c0.2,0,0.3-0.1,0.3-0.3l0,0v-8.7c0-2.7,2-4.9,4.6-5.1l0,0c0.1,0,0.2-0.1,0.2-0.3v-3.7C283.5,17.9,283.3,17.8,283.2,17.8"/>
	<path d="M242.7,32.4c-2.8,0-5.2-2.3-5.2-5.2s2.3-5.2,5.2-5.2c2.8,0,5.2,2.3,5.2,5.2S245.6,32.4,242.7,32.4 M252.1,26.8
		v-9c0-0.2-0.1-0.3-0.3-0.3h-3.2l0,0c0,0,0,0,0,0c-0.1,0-0.2,0.1-0.3,0.2l0,0l-0.5,1.7l-0.5-0.3c-1.4-0.8-3.1-1.3-4.7-1.3
		c-5.2,0-9.4,4.2-9.4,9.4c0,5.2,4.2,9.4,9.4,9.4s9.4-4.2,9.4-9.4c0,0,0-0.1,0-0.1c0,0,0-0.1,0-0.1L252.1,26.8L252.1,26.8z"/>
	<path d="M263.3,32.4c-2.8,0-5.2-2.3-5.2-5.2s2.3-5.2,5.2-5.2c2.8,0,5.2,2.3,5.2,5.2S266.1,32.4,263.3,32.4 M272.7,26.8
		v-9c0-0.2-0.1-0.3-0.3-0.3h-3.2v0c0,0,0,0,0,0c-0.1,0-0.2,0.1-0.3,0.2l0,0l-0.5,1.7l-0.5-0.3c-1.4-0.8-3.1-1.3-4.7-1.3
		c-5.2,0-9.4,4.2-9.4,9.4c0,5.2,4.2,9.4,9.4,9.4c5.2,0,9.4-4.2,9.4-9.4c0,0,0-0.1,0-0.1c0,0,0-0.1,0-0.1L272.7,26.8L272.7,26.8z"/>
</svg>
